<svg width="175" height="175" viewBox="0 0 175 175" fill="none" xmlns="http://www.w3.org/2000/svg">
<path d="M52.2163 141.323L47.3805 130.29H48.9299L53.171 140.118H52.6232L56.833 130.29H58.3354L53.4996 141.323H52.2163ZM59.2953 131.871V130.337H61.0011V131.871H59.2953ZM59.4362 141.323V133.702H60.8603V141.323H59.4362ZM65.7791 141.464C65.3826 141.464 64.9914 141.428 64.6054 141.355C64.2298 141.282 63.8802 141.177 63.5568 141.042C63.2438 140.895 62.9673 140.723 62.7274 140.525L63.1499 139.539C63.4003 139.727 63.6716 139.889 63.9637 140.024C64.2558 140.15 64.5584 140.243 64.8714 140.306C65.1844 140.369 65.4974 140.4 65.8104 140.4C66.3842 140.4 66.8172 140.296 67.1093 140.087C67.4015 139.878 67.5475 139.602 67.5475 139.257C67.5475 138.965 67.4484 138.741 67.2502 138.585C67.0624 138.418 66.765 138.292 66.3581 138.209L64.9027 137.912C64.2558 137.766 63.7655 137.526 63.4316 137.192C63.1082 136.847 62.9465 136.409 62.9465 135.877C62.9465 135.408 63.0717 135.001 63.3221 134.656C63.5829 134.302 63.9428 134.03 64.4019 133.843C64.861 133.655 65.3878 133.561 65.9825 133.561C66.3373 133.561 66.6816 133.597 67.0154 133.67C67.3493 133.744 67.6623 133.848 67.9544 133.983C68.2465 134.119 68.4917 134.296 68.69 134.516L68.2518 135.486C68.0535 135.298 67.8292 135.142 67.5788 135.016C67.3284 134.891 67.0676 134.797 66.7963 134.735C66.5251 134.662 66.2538 134.625 65.9825 134.625C65.4191 134.625 64.9914 134.735 64.6993 134.954C64.4176 135.173 64.2767 135.46 64.2767 135.815C64.2767 136.086 64.3602 136.31 64.5271 136.487C64.7045 136.665 64.981 136.795 65.3565 136.879L66.812 137.176C67.4901 137.322 68.0014 137.557 68.3457 137.88C68.69 138.193 68.8621 138.621 68.8621 139.164C68.8621 139.643 68.7317 140.056 68.4709 140.4C68.2205 140.744 67.8605 141.01 67.391 141.198C66.932 141.375 66.3947 141.464 65.7791 141.464ZM73.4381 141.464C72.8225 141.464 72.3061 141.349 71.8888 141.12C71.4819 140.89 71.1793 140.551 70.9811 140.103C70.7828 139.654 70.6837 139.091 70.6837 138.412V133.702H72.1078V138.412C72.1078 138.84 72.1652 139.195 72.28 139.477C72.3948 139.758 72.5721 139.967 72.8121 140.103C73.0625 140.238 73.3755 140.306 73.7511 140.306C74.1684 140.306 74.5336 140.212 74.8466 140.024C75.1596 139.837 75.4047 139.57 75.5821 139.226C75.7595 138.882 75.8482 138.48 75.8482 138.021V133.702H77.2723V141.323H75.8795V139.602H76.0829C75.8742 140.207 75.5352 140.671 75.0657 140.995C74.6066 141.308 74.0641 141.464 73.4381 141.464ZM81.9896 141.464C81.4679 141.464 80.9932 141.36 80.5655 141.151C80.1481 140.942 79.8195 140.661 79.5795 140.306C79.35 139.951 79.2352 139.555 79.2352 139.117C79.2352 138.553 79.3761 138.11 79.6578 137.786C79.9395 137.463 80.4142 137.233 81.0819 137.098C81.7496 136.952 82.6469 136.879 83.7737 136.879H84.5092V137.786H83.805C83.1999 137.786 82.6938 137.807 82.2869 137.849C81.8801 137.891 81.5566 137.959 81.3167 138.052C81.0767 138.146 80.9045 138.277 80.8002 138.444C80.6959 138.6 80.6437 138.798 80.6437 139.038C80.6437 139.445 80.7846 139.779 81.0663 140.04C81.3584 140.301 81.7549 140.431 82.2556 140.431C82.6521 140.431 83.0016 140.337 83.3042 140.15C83.6067 139.951 83.8467 139.69 84.0241 139.367C84.2014 139.033 84.2901 138.652 84.2901 138.225V136.425C84.2901 135.809 84.1649 135.366 83.9145 135.095C83.6641 134.813 83.2416 134.672 82.6469 134.672C82.2087 134.672 81.7705 134.74 81.3323 134.876C80.9045 135.011 80.4611 135.22 80.0021 135.502L79.5482 134.484C79.8195 134.296 80.1273 134.135 80.4716 133.999C80.8263 133.853 81.1915 133.744 81.5671 133.67C81.9531 133.597 82.3235 133.561 82.6782 133.561C83.3564 133.561 83.9145 133.67 84.3527 133.89C84.7909 134.098 85.1196 134.427 85.3387 134.876C85.5578 135.314 85.6673 135.877 85.6673 136.566V141.323H84.3214V139.586H84.4623C84.3788 139.972 84.2223 140.306 83.9928 140.588C83.7632 140.869 83.4763 141.088 83.132 141.245C82.7982 141.391 82.4174 141.464 81.9896 141.464ZM90.3341 141.464C89.5203 141.464 88.91 141.235 88.5031 140.775C88.1066 140.306 87.9084 139.633 87.9084 138.757V130.29H89.3325V138.647C89.3325 139.002 89.3795 139.304 89.4734 139.555C89.5777 139.795 89.7238 139.972 89.9116 140.087C90.1098 140.202 90.355 140.259 90.6471 140.259C90.7619 140.259 90.8767 140.254 90.9914 140.243C91.1166 140.233 91.2314 140.212 91.3357 140.181L91.3044 141.339C91.1375 141.381 90.9706 141.412 90.8036 141.433C90.6471 141.454 90.4906 141.464 90.3341 141.464ZM100.484 141.464C99.9099 141.464 99.3674 141.417 98.8562 141.323C98.345 141.219 97.8755 141.073 97.4477 140.885C97.0199 140.687 96.6339 140.447 96.2896 140.165L96.7904 139.007C97.1347 139.268 97.4946 139.492 97.8702 139.68C98.2458 139.857 98.6475 139.993 99.0753 140.087C99.503 140.17 99.9725 140.212 100.484 140.212C101.402 140.212 102.075 140.045 102.503 139.711C102.941 139.377 103.16 138.939 103.16 138.397C103.16 138.094 103.092 137.839 102.956 137.63C102.821 137.421 102.602 137.244 102.299 137.098C101.997 136.952 101.6 136.832 101.11 136.738L99.4509 136.394C98.4702 136.185 97.7346 135.841 97.2443 135.361C96.7643 134.881 96.5244 134.239 96.5244 133.436C96.5244 132.778 96.6965 132.205 97.0408 131.714C97.3955 131.213 97.8755 130.827 98.4806 130.556C99.0961 130.285 99.8056 130.149 100.609 130.149C101.11 130.149 101.584 130.201 102.033 130.306C102.482 130.4 102.899 130.551 103.285 130.76C103.671 130.958 104.01 131.203 104.302 131.495L103.817 132.606C103.358 132.189 102.868 131.886 102.346 131.699C101.824 131.5 101.24 131.401 100.593 131.401C100.061 131.401 99.5969 131.485 99.2005 131.652C98.8144 131.819 98.5119 132.053 98.2928 132.356C98.0841 132.648 97.9798 132.992 97.9798 133.389C97.9798 133.869 98.1259 134.244 98.418 134.516C98.7101 134.787 99.2005 134.996 99.8891 135.142L101.532 135.47C102.576 135.689 103.348 136.028 103.848 136.487C104.36 136.936 104.615 137.541 104.615 138.303C104.615 138.929 104.448 139.482 104.115 139.962C103.781 140.431 103.301 140.802 102.675 141.073C102.059 141.334 101.329 141.464 100.484 141.464ZM109.47 141.464C108.542 141.464 107.848 141.224 107.389 140.744C106.93 140.254 106.7 139.555 106.7 138.647V134.797H105.214V133.702H106.7V131.386H108.125V133.702H110.519V134.797H108.125V138.522C108.125 139.096 108.245 139.529 108.484 139.821C108.724 140.113 109.121 140.259 109.674 140.259C109.841 140.259 110.003 140.243 110.159 140.212C110.326 140.17 110.482 140.129 110.629 140.087L110.863 141.151C110.717 141.245 110.509 141.318 110.237 141.37C109.976 141.433 109.721 141.464 109.47 141.464ZM114.641 141.464C114.026 141.464 113.509 141.349 113.092 141.12C112.685 140.89 112.382 140.551 112.184 140.103C111.986 139.654 111.887 139.091 111.887 138.412V133.702H113.311V138.412C113.311 138.84 113.368 139.195 113.483 139.477C113.598 139.758 113.775 139.967 114.015 140.103C114.265 140.238 114.578 140.306 114.954 140.306C115.371 140.306 115.737 140.212 116.05 140.024C116.363 139.837 116.608 139.57 116.785 139.226C116.962 138.882 117.051 138.48 117.051 138.021V133.702H118.475V141.323H117.082V139.602H117.286C117.077 140.207 116.738 140.671 116.269 140.995C115.81 141.308 115.267 141.464 114.641 141.464ZM123.678 141.464C123.01 141.464 122.421 141.308 121.909 140.995C121.409 140.671 121.017 140.212 120.736 139.617C120.454 139.012 120.313 138.308 120.313 137.505C120.313 136.691 120.449 135.992 120.72 135.408C121.002 134.813 121.393 134.359 121.894 134.046C122.405 133.723 123 133.561 123.678 133.561C124.356 133.561 124.94 133.733 125.431 134.077C125.921 134.411 126.25 134.86 126.416 135.423H126.244V130.29H127.668V141.323H126.26V139.555H126.416C126.26 140.139 125.931 140.603 125.431 140.948C124.94 141.292 124.356 141.464 123.678 141.464ZM124.006 140.337C124.695 140.337 125.243 140.097 125.65 139.617C126.057 139.127 126.26 138.423 126.26 137.505C126.26 136.587 126.057 135.888 125.65 135.408C125.243 134.928 124.695 134.688 124.006 134.688C123.328 134.688 122.781 134.928 122.363 135.408C121.956 135.888 121.753 136.587 121.753 137.505C121.753 138.423 121.956 139.127 122.363 139.617C122.781 140.097 123.328 140.337 124.006 140.337ZM129.811 131.871V130.337H131.517V131.871H129.811ZM129.952 141.323V133.702H131.376V141.323H129.952ZM136.905 141.464C136.154 141.464 135.502 141.302 134.949 140.979C134.396 140.656 133.968 140.196 133.666 139.602C133.363 139.007 133.212 138.308 133.212 137.505C133.212 136.701 133.363 136.008 133.666 135.423C133.968 134.829 134.396 134.37 134.949 134.046C135.502 133.723 136.154 133.561 136.905 133.561C137.656 133.561 138.309 133.723 138.861 134.046C139.414 134.37 139.842 134.829 140.145 135.423C140.447 136.008 140.599 136.701 140.599 137.505C140.599 138.308 140.447 139.007 140.145 139.602C139.842 140.196 139.414 140.656 138.861 140.979C138.309 141.302 137.656 141.464 136.905 141.464ZM136.905 140.337C137.594 140.337 138.142 140.097 138.548 139.617C138.955 139.127 139.159 138.423 139.159 137.505C139.159 136.587 138.955 135.888 138.548 135.408C138.142 134.928 137.594 134.688 136.905 134.688C136.227 134.688 135.679 134.928 135.262 135.408C134.855 135.888 134.652 136.587 134.652 137.505C134.652 138.423 134.855 139.127 135.262 139.617C135.679 140.097 136.227 140.337 136.905 140.337Z" fill="white"/>
<path d="M108.5 83.6448V51.8648L87.5 67.7548M56.77 58.1648C56.2635 57.6209 55.9761 56.9088 55.9631 56.1657C55.9502 55.4226 56.2127 54.701 56.7 54.1398L60.9 50.2548C61.6 49.6248 63.315 49.3448 64.575 50.2548L76.545 59.3898L104.3 34.0148C105.42 32.8948 107.345 32.4398 109.55 33.5948L123.55 40.2798C124.81 41.0148 126 42.1698 126 44.3048V91.5548C126 92.9548 124.985 94.4598 123.9 95.0548L108.5 102.405C107.38 102.86 105.28 102.44 104.545 101.705L76.475 76.1548L64.575 85.2548C63.245 86.1648 61.6 85.9198 60.9 85.2548L56.7 81.4048C55.58 80.2498 55.72 78.3598 56.875 77.2048L67.375 67.7548" fill="white"/>
</svg>
