<svg width="175" height="175" viewBox="0 0 175 175" fill="none" xmlns="http://www.w3.org/2000/svg">
<path d="M64.3207 141.323V130.29H71.2379V131.48H65.7761V135.173H70.9093V136.362H65.7761V141.323H64.3207ZM72.5997 141.323V133.702H73.9925V135.517H73.836C74.003 134.891 74.3055 134.422 74.7437 134.109C75.1819 133.785 75.761 133.597 76.4809 133.545L76.966 133.498L77.0756 134.735L76.1835 134.813C75.4949 134.886 74.9628 135.11 74.5872 135.486C74.2221 135.861 74.0395 136.378 74.0395 137.035V141.323H72.5997ZM80.6649 141.464C80.1432 141.464 79.6685 141.36 79.2407 141.151C78.8234 140.942 78.4948 140.661 78.2548 140.306C78.0253 139.951 77.9105 139.555 77.9105 139.117C77.9105 138.553 78.0513 138.11 78.333 137.786C78.6147 137.463 79.0894 137.233 79.7572 137.098C80.4249 136.952 81.3221 136.879 82.4489 136.879H83.1845V137.786H82.4802C81.8751 137.786 81.3691 137.807 80.9622 137.849C80.5553 137.891 80.2319 137.959 79.9919 138.052C79.752 138.146 79.5798 138.277 79.4755 138.444C79.3711 138.6 79.319 138.798 79.319 139.038C79.319 139.445 79.4598 139.779 79.7415 140.04C80.0336 140.301 80.4301 140.431 80.9309 140.431C81.3274 140.431 81.6769 140.337 81.9794 140.15C82.282 139.951 82.522 139.69 82.6993 139.367C82.8767 139.033 82.9654 138.652 82.9654 138.225V136.425C82.9654 135.809 82.8402 135.366 82.5898 135.095C82.3394 134.813 81.9168 134.672 81.3221 134.672C80.884 134.672 80.4458 134.74 80.0076 134.876C79.5798 135.011 79.1364 135.22 78.6773 135.502L78.2235 134.484C78.4948 134.296 78.8025 134.135 79.1468 133.999C79.5016 133.853 79.8667 133.744 80.2423 133.67C80.6283 133.597 80.9987 133.561 81.3534 133.561C82.0316 133.561 82.5898 133.67 83.028 133.89C83.4662 134.098 83.7948 134.427 84.0139 134.876C84.233 135.314 84.3426 135.877 84.3426 136.566V141.323H82.9967V139.586H83.1375C83.0541 139.972 82.8976 140.306 82.668 140.588C82.4385 140.869 82.1516 141.088 81.8073 141.245C81.4734 141.391 81.0926 141.464 80.6649 141.464ZM86.615 141.323V133.702H88.0078V135.361H87.8356C87.9713 134.975 88.1591 134.651 88.399 134.39C88.639 134.119 88.9259 133.916 89.2598 133.78C89.6041 133.634 89.9797 133.561 90.3866 133.561C91.0334 133.561 91.5551 133.717 91.9515 134.03C92.348 134.333 92.6141 134.797 92.7497 135.423H92.5306C92.7184 134.849 93.0523 134.396 93.5322 134.062C94.0225 133.728 94.5911 133.561 95.238 133.561C95.8118 133.561 96.2813 133.676 96.6465 133.905C97.0221 134.124 97.3038 134.458 97.4916 134.907C97.6794 135.345 97.7733 135.908 97.7733 136.597V141.323H96.3491V136.66C96.3491 135.992 96.2344 135.502 96.0048 135.189C95.7753 134.876 95.3893 134.719 94.8468 134.719C94.4503 134.719 94.106 134.813 93.8139 135.001C93.5217 135.189 93.2974 135.455 93.1409 135.799C92.9844 136.143 92.9062 136.555 92.9062 137.035V141.323H91.4821V136.66C91.4821 135.992 91.3673 135.502 91.1378 135.189C90.9082 134.876 90.5222 134.719 89.9797 134.719C89.5832 134.719 89.2389 134.813 88.9468 135.001C88.6547 135.189 88.4303 135.455 88.2738 135.799C88.1173 136.143 88.0391 136.555 88.0391 137.035V141.323H86.615ZM103.584 141.464C102.76 141.464 102.051 141.308 101.456 140.995C100.872 140.671 100.418 140.217 100.095 139.633C99.7712 139.038 99.6094 138.339 99.6094 137.536C99.6094 136.743 99.7659 136.049 100.079 135.455C100.402 134.86 100.841 134.396 101.394 134.062C101.957 133.728 102.599 133.561 103.318 133.561C104.017 133.561 104.612 133.712 105.103 134.015C105.603 134.317 105.984 134.75 106.245 135.314C106.516 135.867 106.652 136.534 106.652 137.317V137.833H100.721V136.926H105.713L105.447 137.145C105.447 136.331 105.269 135.705 104.915 135.267C104.56 134.818 104.038 134.594 103.35 134.594C102.849 134.594 102.421 134.714 102.066 134.954C101.712 135.183 101.44 135.512 101.253 135.94C101.065 136.357 100.971 136.842 100.971 137.395V137.489C100.971 138.115 101.07 138.642 101.268 139.07C101.477 139.487 101.774 139.805 102.16 140.024C102.546 140.233 103.021 140.337 103.584 140.337C104.033 140.337 104.466 140.269 104.883 140.134C105.311 139.988 105.713 139.763 106.088 139.461L106.527 140.447C106.182 140.76 105.739 141.01 105.196 141.198C104.664 141.375 104.127 141.464 103.584 141.464ZM108.423 141.323V133.702H109.816V135.517H109.659C109.826 134.891 110.129 134.422 110.567 134.109C111.005 133.785 111.584 133.597 112.304 133.545L112.789 133.498L112.899 134.735L112.007 134.813C111.318 134.886 110.786 135.11 110.411 135.486C110.045 135.861 109.863 136.378 109.863 137.035V141.323H108.423Z" fill="white"/>
<g clip-path="url(#clip0_2701_3)">
<g clip-path="url(#clip1_2701_3)">
<g clip-path="url(#clip2_2701_3)">
<path d="M66.7725 48.6201H108.505V69.4865H87.6389L66.7725 48.6201ZM66.7725 69.4865H87.6389L108.505 90.3529H66.7725V69.4865ZM66.7725 90.3529H87.6389V111.219L66.7725 90.3529Z" fill="white"/>
</g>
</g>
</g>
<defs>
<clipPath id="clip0_2701_3">
<rect width="62.5992" height="62.5992" fill="white" transform="translate(56.3394 48.6201)"/>
</clipPath>
<clipPath id="clip1_2701_3">
<rect width="62.5992" height="62.5992" fill="white" transform="translate(56.3394 48.6201)"/>
</clipPath>
<clipPath id="clip2_2701_3">
<rect width="62.5992" height="62.5992" fill="white" transform="translate(56.3394 48.6201)"/>
</clipPath>
</defs>
</svg>
