<svg width="175" height="175" viewBox="0 0 175 175" fill="none" xmlns="http://www.w3.org/2000/svg">
<path d="M67.7848 141.323V130.29H74.702V131.48H69.2403V135.173H74.3734V136.362H69.2403V141.323H67.7848ZM76.0758 131.871V130.337H77.7816V131.871H76.0758ZM76.2166 141.323V133.702H77.6408V141.323H76.2166ZM83.3577 144.281C82.6796 144.281 82.0484 144.198 81.4641 144.031C80.8798 143.864 80.3582 143.608 79.8991 143.264L80.353 142.231C80.666 142.44 80.9737 142.612 81.2763 142.747C81.5893 142.893 81.9075 142.998 82.2309 143.06C82.5648 143.123 82.9091 143.154 83.2638 143.154C84.0046 143.154 84.5575 142.961 84.9227 142.575C85.2983 142.2 85.4861 141.647 85.4861 140.916V139.226H85.6269C85.4809 139.81 85.1522 140.275 84.641 140.619C84.1402 140.963 83.556 141.135 82.8882 141.135C82.1996 141.135 81.5997 140.979 81.0885 140.666C80.5773 140.343 80.1808 139.899 79.8991 139.336C79.6174 138.762 79.4766 138.099 79.4766 137.348C79.4766 136.587 79.6174 135.924 79.8991 135.361C80.1808 134.787 80.5773 134.343 81.0885 134.03C81.5997 133.717 82.1996 133.561 82.8882 133.561C83.5664 133.561 84.1559 133.733 84.6567 134.077C85.1575 134.422 85.4809 134.886 85.6269 135.47H85.4861V133.702H86.8789V140.729C86.8789 141.511 86.7433 142.168 86.472 142.7C86.2112 143.233 85.82 143.629 85.2983 143.89C84.7766 144.151 84.1298 144.281 83.3577 144.281ZM83.2012 140.009C83.9003 140.009 84.4532 139.769 84.8601 139.289C85.267 138.809 85.4705 138.162 85.4705 137.348C85.4705 136.524 85.267 135.877 84.8601 135.408C84.4532 134.928 83.9003 134.688 83.2012 134.688C82.5022 134.688 81.944 134.928 81.5267 135.408C81.1198 135.877 80.9164 136.524 80.9164 137.348C80.9164 138.162 81.1198 138.809 81.5267 139.289C81.944 139.769 82.5022 140.009 83.2012 140.009ZM89.1927 141.323V133.702H90.5855V135.361H90.4133C90.549 134.975 90.7368 134.651 90.9767 134.39C91.2167 134.119 91.5036 133.916 91.8375 133.78C92.1818 133.634 92.5574 133.561 92.9643 133.561C93.6111 133.561 94.1328 133.717 94.5292 134.03C94.9257 134.333 95.1918 134.797 95.3274 135.423H95.1083C95.2961 134.849 95.6299 134.396 96.1099 134.062C96.6002 133.728 97.1688 133.561 97.8157 133.561C98.3895 133.561 98.859 133.676 99.2242 133.905C99.5998 134.124 99.8815 134.458 100.069 134.907C100.257 135.345 100.351 135.908 100.351 136.597V141.323H98.9268V136.66C98.9268 135.992 98.8121 135.502 98.5825 135.189C98.353 134.876 97.967 134.719 97.4245 134.719C97.028 134.719 96.6837 134.813 96.3916 135.001C96.0994 135.189 95.8751 135.455 95.7186 135.799C95.5621 136.143 95.4839 136.555 95.4839 137.035V141.323H94.0598V136.66C94.0598 135.992 93.945 135.502 93.7155 135.189C93.4859 134.876 93.0999 134.719 92.5574 134.719C92.1609 134.719 91.8166 134.813 91.5245 135.001C91.2324 135.189 91.008 135.455 90.8515 135.799C90.695 136.143 90.6168 136.555 90.6168 137.035V141.323H89.1927ZM105.067 141.464C104.545 141.464 104.07 141.36 103.643 141.151C103.225 140.942 102.897 140.661 102.657 140.306C102.427 139.951 102.312 139.555 102.312 139.117C102.312 138.553 102.453 138.11 102.735 137.786C103.017 137.463 103.491 137.233 104.159 137.098C104.827 136.952 105.724 136.879 106.851 136.879H107.586V137.786H106.882C106.277 137.786 105.771 137.807 105.364 137.849C104.957 137.891 104.634 137.959 104.394 138.052C104.154 138.146 103.982 138.277 103.877 138.444C103.773 138.6 103.721 138.798 103.721 139.038C103.721 139.445 103.862 139.779 104.143 140.04C104.435 140.301 104.832 140.431 105.333 140.431C105.729 140.431 106.079 140.337 106.381 140.15C106.684 139.951 106.924 139.69 107.101 139.367C107.279 139.033 107.367 138.652 107.367 138.225V136.425C107.367 135.809 107.242 135.366 106.992 135.095C106.741 134.813 106.319 134.672 105.724 134.672C105.286 134.672 104.848 134.74 104.409 134.876C103.982 135.011 103.538 135.22 103.079 135.502L102.625 134.484C102.897 134.296 103.204 134.135 103.549 133.999C103.903 133.853 104.269 133.744 104.644 133.67C105.03 133.597 105.401 133.561 105.755 133.561C106.433 133.561 106.992 133.67 107.43 133.89C107.868 134.098 108.197 134.427 108.416 134.876C108.635 135.314 108.744 135.877 108.744 136.566V141.323H107.399V139.586H107.539C107.456 139.972 107.299 140.306 107.07 140.588C106.84 140.869 106.553 141.088 106.209 141.245C105.875 141.391 105.494 141.464 105.067 141.464Z" fill="white"/>
<g clip-path="url(#clip0_2701_11)">
<path d="M83.2559 37H95.4508V61.3062H83.2561C67.1739 60.6796 67.0115 37.658 83.2559 37ZM83.2559 86.6519H95.4508V62.3458H83.2561C67.0117 63.0038 67.1739 86.0254 83.2559 86.6519ZM108.689 37H96.494V61.3062H108.689C124.988 60.4369 124.784 37.4961 108.689 37ZM95.4508 99.8447V87.6915H83.2561C73.3046 87.6915 67.0117 99.3188 73.9327 107.67C80.5313 115.948 95.4509 111.821 95.4509 99.8447M120.909 74.4988C120.909 65.159 110.693 59.2901 102.565 63.96C94.4373 68.6299 94.4371 80.3679 102.565 85.0378C110.694 89.7077 120.909 83.8387 120.909 74.4988Z" fill="white"/>
</g>
<defs>
<clipPath id="clip0_2701_11">
<rect width="50" height="75" fill="white" transform="translate(71 37)"/>
</clipPath>
</defs>
</svg>
