<svg width="175" height="175" viewBox="0 0 175 175" fill="none" xmlns="http://www.w3.org/2000/svg">
<path d="M51.3302 141.323V130.29H55.7904C56.5834 130.29 57.2563 130.421 57.8093 130.681C58.3622 130.942 58.7795 131.323 59.0612 131.824C59.3534 132.314 59.4994 132.914 59.4994 133.624C59.4994 134.333 59.3534 134.938 59.0612 135.439C58.7795 135.94 58.3622 136.321 57.8093 136.581C57.2563 136.842 56.5834 136.973 55.7904 136.973H52.7857V141.323H51.3302ZM52.7857 135.799H55.6026C56.4164 135.799 57.0268 135.616 57.4337 135.251C57.851 134.876 58.0597 134.333 58.0597 133.624C58.0597 132.914 57.851 132.382 57.4337 132.027C57.0268 131.662 56.4164 131.48 55.6026 131.48H52.7857V135.799ZM61.107 141.323V130.29H62.5311V135.361H62.3276C62.5467 134.766 62.9015 134.317 63.3918 134.015C63.8926 133.712 64.4612 133.561 65.0977 133.561C65.7132 133.561 66.2192 133.676 66.6157 133.905C67.0122 134.124 67.3095 134.458 67.5077 134.907C67.706 135.355 67.8051 135.919 67.8051 136.597V141.323H66.3809V136.675C66.3809 136.227 66.3236 135.856 66.2088 135.564C66.094 135.272 65.9115 135.058 65.6611 134.922C65.4211 134.787 65.1133 134.719 64.7377 134.719C64.2995 134.719 63.9135 134.813 63.5796 135.001C63.2458 135.189 62.9849 135.455 62.7971 135.799C62.6198 136.143 62.5311 136.545 62.5311 137.004V141.323H61.107ZM73.3023 141.464C72.5511 141.464 71.8991 141.302 71.3461 140.979C70.7931 140.656 70.3654 140.196 70.0628 139.602C69.7602 139.007 69.609 138.308 69.609 137.505C69.609 136.701 69.7602 136.008 70.0628 135.423C70.3654 134.829 70.7931 134.37 71.3461 134.046C71.8991 133.723 72.5511 133.561 73.3023 133.561C74.0535 133.561 74.7056 133.723 75.2585 134.046C75.8115 134.37 76.2393 134.829 76.5418 135.423C76.8444 136.008 76.9957 136.701 76.9957 137.505C76.9957 138.308 76.8444 139.007 76.5418 139.602C76.2393 140.196 75.8115 140.656 75.2585 140.979C74.7056 141.302 74.0535 141.464 73.3023 141.464ZM73.3023 140.337C73.9909 140.337 74.5387 140.097 74.9455 139.617C75.3524 139.127 75.5559 138.423 75.5559 137.505C75.5559 136.587 75.3524 135.888 74.9455 135.408C74.5387 134.928 73.9909 134.688 73.3023 134.688C72.6242 134.688 72.0764 134.928 71.6591 135.408C71.2522 135.888 71.0487 136.587 71.0487 137.505C71.0487 138.423 71.2522 139.127 71.6591 139.617C72.0764 140.097 72.6242 140.337 73.3023 140.337ZM81.9048 141.464C80.9763 141.464 80.2825 141.224 79.8234 140.744C79.3643 140.254 79.1348 139.555 79.1348 138.647V134.797H77.6481V133.702H79.1348V131.386H80.5589V133.702H82.9534V134.797H80.5589V138.522C80.5589 139.096 80.6789 139.529 80.9189 139.821C81.1588 140.113 81.5553 140.259 82.1083 140.259C82.2752 140.259 82.4369 140.243 82.5934 140.212C82.7603 140.17 82.9168 140.129 83.0629 140.087L83.2977 141.151C83.1516 141.245 82.9429 141.318 82.6717 141.37C82.4108 141.433 82.1552 141.464 81.9048 141.464ZM87.5155 141.464C86.7643 141.464 86.1123 141.302 85.5593 140.979C85.0063 140.656 84.5786 140.196 84.276 139.602C83.9734 139.007 83.8222 138.308 83.8222 137.505C83.8222 136.701 83.9734 136.008 84.276 135.423C84.5786 134.829 85.0063 134.37 85.5593 134.046C86.1123 133.723 86.7643 133.561 87.5155 133.561C88.2667 133.561 88.9188 133.723 89.4717 134.046C90.0247 134.37 90.4525 134.829 90.755 135.423C91.0576 136.008 91.2089 136.701 91.2089 137.505C91.2089 138.308 91.0576 139.007 90.755 139.602C90.4525 140.196 90.0247 140.656 89.4717 140.979C88.9188 141.302 88.2667 141.464 87.5155 141.464ZM87.5155 140.337C88.2041 140.337 88.7519 140.097 89.1588 139.617C89.5656 139.127 89.7691 138.423 89.7691 137.505C89.7691 136.587 89.5656 135.888 89.1588 135.408C88.7519 134.928 88.2041 134.688 87.5155 134.688C86.8374 134.688 86.2896 134.928 85.8723 135.408C85.4654 135.888 85.2619 136.587 85.2619 137.505C85.2619 138.423 85.4654 139.127 85.8723 139.617C86.2896 140.097 86.8374 140.337 87.5155 140.337ZM95.6624 141.464C95.2659 141.464 94.8746 141.428 94.4886 141.355C94.113 141.282 93.7635 141.177 93.4401 141.042C93.1271 140.895 92.8506 140.723 92.6106 140.525L93.0332 139.539C93.2836 139.727 93.5548 139.889 93.847 140.024C94.1391 140.15 94.4417 140.243 94.7547 140.306C95.0677 140.369 95.3807 140.4 95.6937 140.4C96.2675 140.4 96.7005 140.296 96.9926 140.087C97.2847 139.878 97.4308 139.602 97.4308 139.257C97.4308 138.965 97.3317 138.741 97.1334 138.585C96.9456 138.418 96.6483 138.292 96.2414 138.209L94.786 137.912C94.1391 137.766 93.6487 137.526 93.3149 137.192C92.9915 136.847 92.8297 136.409 92.8297 135.877C92.8297 135.408 92.9549 135.001 93.2053 134.656C93.4662 134.302 93.8261 134.03 94.2852 133.843C94.7442 133.655 95.2711 133.561 95.8658 133.561C96.2205 133.561 96.5648 133.597 96.8987 133.67C97.2325 133.744 97.5455 133.848 97.8377 133.983C98.1298 134.119 98.375 134.296 98.5732 134.516L98.135 135.486C97.9368 135.298 97.7125 135.142 97.4621 135.016C97.2117 134.891 96.9509 134.797 96.6796 134.735C96.4083 134.662 96.1371 134.625 95.8658 134.625C95.3024 134.625 94.8746 134.735 94.5825 134.954C94.3008 135.173 94.16 135.46 94.16 135.815C94.16 136.086 94.2434 136.31 94.4104 136.487C94.5877 136.665 94.8642 136.795 95.2398 136.879L96.6952 137.176C97.3734 137.322 97.8846 137.557 98.2289 137.88C98.5732 138.193 98.7454 138.621 98.7454 139.164C98.7454 139.643 98.6149 140.056 98.3541 140.4C98.1037 140.744 97.7438 141.01 97.2743 141.198C96.8152 141.375 96.2779 141.464 95.6624 141.464ZM100.598 141.323V130.29H102.022V135.361H101.819C102.038 134.766 102.393 134.317 102.883 134.015C103.384 133.712 103.953 133.561 104.589 133.561C105.205 133.561 105.711 133.676 106.107 133.905C106.503 134.124 106.801 134.458 106.999 134.907C107.197 135.355 107.296 135.919 107.296 136.597V141.323H105.872V136.675C105.872 136.227 105.815 135.856 105.7 135.564C105.585 135.272 105.403 135.058 105.152 134.922C104.912 134.787 104.605 134.719 104.229 134.719C103.791 134.719 103.405 134.813 103.071 135.001C102.737 135.189 102.476 135.455 102.288 135.799C102.111 136.143 102.022 136.545 102.022 137.004V141.323H100.598ZM112.794 141.464C112.042 141.464 111.39 141.302 110.837 140.979C110.284 140.656 109.857 140.196 109.554 139.602C109.252 139.007 109.1 138.308 109.1 137.505C109.1 136.701 109.252 136.008 109.554 135.423C109.857 134.829 110.284 134.37 110.837 134.046C111.39 133.723 112.042 133.561 112.794 133.561C113.545 133.561 114.197 133.723 114.75 134.046C115.303 134.37 115.731 134.829 116.033 135.423C116.336 136.008 116.487 136.701 116.487 137.505C116.487 138.308 116.336 139.007 116.033 139.602C115.731 140.196 115.303 140.656 114.75 140.979C114.197 141.302 113.545 141.464 112.794 141.464ZM112.794 140.337C113.482 140.337 114.03 140.097 114.437 139.617C114.844 139.127 115.047 138.423 115.047 137.505C115.047 136.587 114.844 135.888 114.437 135.408C114.03 134.928 113.482 134.688 112.794 134.688C112.115 134.688 111.568 134.928 111.15 135.408C110.744 135.888 110.54 136.587 110.54 137.505C110.54 138.423 110.744 139.127 111.15 139.617C111.568 140.097 112.115 140.337 112.794 140.337ZM118.311 144.14V133.702H119.704V135.455H119.548C119.715 134.881 120.043 134.422 120.534 134.077C121.024 133.733 121.613 133.561 122.302 133.561C122.98 133.561 123.57 133.723 124.07 134.046C124.571 134.359 124.962 134.813 125.244 135.408C125.526 135.992 125.667 136.691 125.667 137.505C125.667 138.308 125.526 139.012 125.244 139.617C124.973 140.212 124.582 140.671 124.07 140.995C123.57 141.308 122.98 141.464 122.302 141.464C121.624 141.464 121.04 141.292 120.549 140.948C120.059 140.603 119.73 140.15 119.563 139.586H119.735V144.14H118.311ZM121.973 140.337C122.662 140.337 123.21 140.097 123.617 139.617C124.023 139.127 124.227 138.423 124.227 137.505C124.227 136.587 124.023 135.888 123.617 135.408C123.21 134.928 122.662 134.688 121.973 134.688C121.285 134.688 120.737 134.928 120.33 135.408C119.923 135.888 119.72 136.587 119.72 137.505C119.72 138.423 119.923 139.127 120.33 139.617C120.737 140.097 121.285 140.337 121.973 140.337Z" fill="white"/>
<g clip-path="url(#clip0_2701_39)">
<path d="M66.6872 34.8252C60.2248 34.8252 55 40.0505 55 46.5134V87.487C55 93.9499 60.2248 99.1752 66.6872 99.1752H109.313C115.775 99.1752 121 93.9499 121 87.487V46.5134C121 40.0505 115.775 34.8252 109.313 34.8252H66.6872ZM78.6502 51.188C80.905 51.188 82.7752 51.4624 84.3148 52.0399C85.6954 52.509 86.9543 53.2796 88 54.2957C88.886 55.1847 89.5707 56.2537 90.0078 57.4302C90.4203 58.5852 90.6395 59.7675 90.6395 61.005C90.6395 63.37 90.0895 65.3225 88.9895 66.8625C87.8902 68.4022 86.3505 69.5577 84.5628 70.2177C82.6927 70.9055 80.6302 71.1525 78.3753 71.1525C77.7153 71.1525 77.2745 71.1525 76.9997 71.1252C76.7248 71.0979 76.3397 71.0979 75.8173 71.0979V79.9254C75.8447 80.1177 75.7075 80.2832 75.5152 80.3105H70.18C69.9603 80.3105 69.851 80.1997 69.851 79.9522V51.6552C69.851 51.4629 69.9335 51.352 70.1259 51.352C70.5935 51.352 71.0334 51.352 71.6655 51.3252C72.3255 51.2974 73.0128 51.2984 73.7553 51.2705C74.4978 51.2432 75.2955 51.2427 76.1478 51.2154C77.0007 51.1875 77.8252 51.188 78.6502 51.188ZM79.2638 56.6042C79.1234 56.6015 78.9829 56.6018 78.8425 56.6052C78.1278 56.6052 77.4952 56.6057 76.9723 56.6336C76.4227 56.6057 76.038 56.633 75.8457 56.6604V65.9004C76.2303 65.9282 76.5872 65.955 76.9172 65.955H78.3753C79.4478 65.955 80.5203 65.79 81.5377 65.46C82.4178 65.2125 83.1877 64.6897 83.7925 64.0024C84.37 63.3145 84.6453 62.3802 84.6453 61.17C84.6706 60.3109 84.4514 59.4623 84.0132 58.7229C83.5455 58.0082 82.885 57.4575 82.0873 57.1554C81.1968 56.7944 80.2435 56.6232 79.2638 56.6042ZM102.328 58.0082C103.455 58.0082 104.61 58.0897 105.738 58.2547C106.563 58.3645 107.36 58.5857 108.102 58.8884C108.213 58.9157 108.322 59.025 108.377 59.1349C108.405 59.2447 108.433 59.355 108.433 59.4649V63.9477C108.433 64.0011 108.421 64.0537 108.397 64.1015C108.373 64.1492 108.338 64.1907 108.296 64.2225C108.048 64.2777 107.91 64.2777 107.801 64.2225C106.976 63.7827 106.095 63.4805 105.159 63.2882C104.142 63.068 103.125 62.9299 102.08 62.9299C101.53 62.902 100.952 62.9855 100.43 63.1227C100.072 63.2052 99.7697 63.398 99.5773 63.6729C99.4402 63.893 99.3577 64.1679 99.3577 64.4154C99.3577 64.6629 99.468 64.9104 99.633 65.13C99.8805 65.4327 100.21 65.6807 100.567 65.8736C101.205 66.2031 101.857 66.5054 102.52 66.7795C104.005 67.2745 105.435 67.9629 106.755 68.7879C107.662 69.3654 108.405 70.1357 108.927 71.0705C109.37 71.9476 109.587 72.9209 109.56 73.9029C109.583 75.2028 109.208 76.4786 108.487 77.5602C107.72 78.6578 106.65 79.5082 105.408 80.0074C104.06 80.5849 102.41 80.8875 100.43 80.8875C99.1643 80.8875 97.9278 80.7777 96.6903 80.5302C95.7204 80.3626 94.7771 80.0666 93.8853 79.65C93.693 79.5402 93.5548 79.3474 93.5822 79.1272V74.3427C93.5822 74.2602 93.6095 74.1499 93.692 74.0952C93.7745 74.04 93.857 74.0684 93.9395 74.123C94.9988 74.7479 96.1495 75.2028 97.3498 75.4709C98.395 75.7457 99.4953 75.8829 100.596 75.8829C101.64 75.8829 102.383 75.7452 102.878 75.4977C103.318 75.3054 103.62 74.8377 103.62 74.3427C103.62 73.958 103.4 73.5997 102.96 73.2418C102.52 72.8845 101.613 72.4725 100.265 71.9502C98.8826 71.4633 97.5697 70.7976 96.3598 69.9702C95.4981 69.3562 94.7842 68.5577 94.27 67.6329C93.8311 66.7643 93.614 65.8007 93.6378 64.8279C93.6378 63.6455 93.9673 62.5179 94.5722 61.5005C95.2595 60.4007 96.2778 59.5205 97.4607 58.9709C98.7528 58.3109 100.374 58.0082 102.328 58.0082Z" fill="white"/>
</g>
<defs>
<clipPath id="clip0_2701_39">
<rect width="66" height="66" fill="white" transform="translate(55 34)"/>
</clipPath>
</defs>
</svg>
