<svg width="175" height="175" viewBox="0 0 175 175" fill="none" xmlns="http://www.w3.org/2000/svg">
<path d="M50.3193 142.844L46.4538 131.811H47.9562L51.2583 141.545H50.6949L54.1066 131.811H55.2334L58.5668 141.545H58.066L61.4151 131.811H62.8548L58.958 142.844H57.7061L54.4665 133.532H54.8108L51.5557 142.844H50.3193ZM67.0012 142.985C66.177 142.985 65.4675 142.828 64.8728 142.515C64.2886 142.192 63.8347 141.738 63.5113 141.154C63.1878 140.559 63.0261 139.86 63.0261 139.056C63.0261 138.264 63.1826 137.57 63.4956 136.975C63.8191 136.38 64.2573 135.916 64.8102 135.582C65.3736 135.248 66.0152 135.081 66.7351 135.081C67.4342 135.081 68.0289 135.233 68.5192 135.535C69.02 135.838 69.4008 136.271 69.6617 136.834C69.9329 137.387 70.0685 138.055 70.0685 138.837V139.354H64.1373V138.446H69.1296L68.8635 138.665C68.8635 137.851 68.6861 137.225 68.3314 136.787C67.9767 136.339 67.455 136.114 66.7664 136.114C66.2656 136.114 65.8379 136.234 65.4832 136.474C65.1284 136.704 64.8572 137.032 64.6694 137.46C64.4816 137.878 64.3877 138.363 64.3877 138.916V139.01C64.3877 139.636 64.4868 140.162 64.685 140.59C64.8937 141.008 65.191 141.326 65.5771 141.545C65.9631 141.753 66.4378 141.858 67.0012 141.858C67.4498 141.858 67.8828 141.79 68.3001 141.654C68.7279 141.508 69.1296 141.284 69.5052 140.981L69.9434 141.967C69.5991 142.28 69.1556 142.531 68.6131 142.719C68.081 142.896 67.5437 142.985 67.0012 142.985ZM75.8305 142.985C75.1419 142.985 74.5524 142.812 74.0621 142.468C73.5717 142.124 73.2431 141.66 73.0761 141.075H73.2326V142.844H71.8398V131.811H73.2639V136.944H73.0918C73.2587 136.38 73.5874 135.932 74.0777 135.598C74.5681 135.254 75.1523 135.081 75.8305 135.081C76.5086 135.081 77.0981 135.243 77.5989 135.567C78.1101 135.88 78.5014 136.333 78.7727 136.928C79.0544 137.512 79.1952 138.211 79.1952 139.025C79.1952 139.829 79.0544 140.533 78.7727 141.138C78.491 141.733 78.0997 142.192 77.5989 142.515C77.0981 142.828 76.5086 142.985 75.8305 142.985ZM75.5018 141.858C76.1904 141.858 76.7382 141.618 77.1451 141.138C77.552 140.648 77.7554 139.943 77.7554 139.025C77.7554 138.107 77.552 137.408 77.1451 136.928C76.7382 136.448 76.1904 136.208 75.5018 136.208C74.8133 136.208 74.2655 136.448 73.8586 136.928C73.4517 137.408 73.2483 138.107 73.2483 139.025C73.2483 139.943 73.4517 140.648 73.8586 141.138C74.2655 141.618 74.8133 141.858 75.5018 141.858ZM81.3867 142.844V136.318H79.8999V135.222H81.7779L81.3867 135.598V135.019C81.3867 133.986 81.6475 133.209 82.1692 132.687C82.6908 132.155 83.4942 131.858 84.5792 131.795L85.2209 131.748L85.3304 132.844L84.6105 132.89C84.1828 132.911 83.8385 133 83.5776 133.157C83.3168 133.303 83.1238 133.516 82.9986 133.798C82.8734 134.069 82.8108 134.414 82.8108 134.831V135.457L82.6073 135.222H84.9705V136.318H82.8108V142.844H81.3867ZM88.6951 142.985C87.8813 142.985 87.271 142.755 86.8641 142.296C86.4676 141.827 86.2694 141.154 86.2694 140.277V131.811H87.6935V140.168C87.6935 140.522 87.7405 140.825 87.8344 141.075C87.9387 141.315 88.0848 141.493 88.2726 141.607C88.4708 141.722 88.716 141.78 89.0081 141.78C89.1229 141.78 89.2376 141.774 89.3524 141.764C89.4776 141.753 89.5924 141.733 89.6967 141.701L89.6654 142.859C89.4985 142.901 89.3315 142.932 89.1646 142.953C89.0081 142.974 88.8516 142.985 88.6951 142.985ZM94.1372 142.985C93.386 142.985 92.734 142.823 92.181 142.499C91.628 142.176 91.2003 141.717 90.8977 141.122C90.5951 140.528 90.4439 139.829 90.4439 139.025C90.4439 138.222 90.5951 137.528 90.8977 136.944C91.2003 136.349 91.628 135.89 92.181 135.567C92.734 135.243 93.386 135.081 94.1372 135.081C94.8884 135.081 95.5405 135.243 96.0934 135.567C96.6464 135.89 97.0742 136.349 97.3767 136.944C97.6793 137.528 97.8306 138.222 97.8306 139.025C97.8306 139.829 97.6793 140.528 97.3767 141.122C97.0742 141.717 96.6464 142.176 96.0934 142.499C95.5405 142.823 94.8884 142.985 94.1372 142.985ZM94.1372 141.858C94.8258 141.858 95.3736 141.618 95.7804 141.138C96.1873 140.648 96.3908 139.943 96.3908 139.025C96.3908 138.107 96.1873 137.408 95.7804 136.928C95.3736 136.448 94.8258 136.208 94.1372 136.208C93.4591 136.208 92.9113 136.448 92.494 136.928C92.0871 137.408 91.8836 138.107 91.8836 139.025C91.8836 139.943 92.0871 140.648 92.494 141.138C92.9113 141.618 93.4591 141.858 94.1372 141.858ZM101.583 142.844L98.7188 135.222H100.19L102.475 141.701H102.099L104.462 135.222H105.605L107.921 141.701H107.561L109.877 135.222H111.27L108.406 142.844H107.076L104.634 136.177H105.354L102.913 142.844H101.583Z" fill="white"/>
<path fill-rule="evenodd" clip-rule="evenodd" d="M123.719 45.5947L101.224 89.4928H80.1447L89.5228 71.2859H89.0898C81.3874 81.3645 69.788 87.9791 53.313 89.4964V71.5569C53.313 71.5569 63.8809 70.9585 70.0626 64.4002H53.313V45.5947H72.1219V61.0946H72.5549L80.2503 45.5947H94.5075V60.9855H94.9405L102.851 45.5947H123.719Z" fill="white"/>
</svg>
