<svg width="175" height="175" viewBox="0 0 175 175" fill="none" xmlns="http://www.w3.org/2000/svg">
<path d="M110.925 35H66.075C59.4062 35 54 40.4062 54 47.075V89.625C54 96.2938 59.4062 101.7 66.075 101.7H110.925C117.594 101.7 123 96.2938 123 89.625V47.075C123 40.4062 117.594 35 110.925 35Z" fill="white"/>
<path d="M69.0024 83.6767V52.5714C68.9967 52.528 69.0012 52.484 69.0153 52.4426C69.0295 52.4012 69.053 52.3636 69.084 52.3327C69.115 52.3018 69.1527 52.2784 69.1942 52.2643C69.2358 52.2502 69.28 52.2458 69.3235 52.2514C71.6487 52.1914 74.3926 52 77.9708 52C82.1912 52 85.2878 52.8771 87.2604 54.7654C88.2187 55.6588 88.9774 56.7433 89.4872 57.9483C89.997 59.1532 90.2464 60.4516 90.2192 61.759C90.2192 65.2043 88.9959 67.7641 86.5493 69.4382C84.1027 71.1123 81.0253 71.9503 77.3171 71.9522L74.7367 71.9979V83.631C74.7439 83.6807 74.7393 83.7314 74.7234 83.779C74.7076 83.8267 74.6807 83.8699 74.6451 83.9054C74.6095 83.9409 74.566 83.9677 74.5182 83.9835C74.4704 83.9994 74.4195 84.0039 74.3697 83.9967H69.3694C69.1257 83.9967 69.0024 83.891 69.0024 83.6767ZM74.7367 56.4624V67.7127C74.7367 67.7127 76.0441 67.6612 77.6038 67.6612C79.6548 67.6612 81.3139 67.2118 82.5812 66.3128C83.8484 65.4138 84.483 63.9416 84.485 61.8961C84.485 60.0982 83.9268 58.7117 82.8105 57.7365C81.6943 56.7614 80.081 56.2777 77.9708 56.2853C77.4518 56.2853 76.9386 56.2853 76.434 56.3081C75.9294 56.331 75.5165 56.331 75.1954 56.331C74.8743 56.331 74.7023 56.3196 74.7367 56.4624ZM94.52 61.1419H99.3941C99.5115 61.138 99.6269 61.1732 99.722 61.2421C99.817 61.3109 99.8863 61.4094 99.9188 61.5219C100.284 62.3 100.495 63.141 100.541 63.9988C102.382 61.6276 104.647 60.5705 107.663 60.5705C107.708 60.5625 107.755 60.5654 107.799 60.5792C107.843 60.593 107.883 60.6172 107.916 60.6498C107.949 60.6823 107.973 60.7222 107.987 60.7661C108.001 60.81 108.004 60.8566 107.996 60.9019V65.9471C107.996 66.2014 107.869 66.3099 107.614 66.2785C104.853 66.1214 102.663 66.4814 101.077 68.0612C100.918 68.1944 100.787 68.3591 100.695 68.545C100.603 68.7309 100.55 68.9339 100.541 69.1411V83.6653C100.541 83.8853 100.415 83.9967 100.16 83.9967H95.2339C94.9472 83.9967 94.8067 83.871 94.8067 83.6167V67.427C94.8067 63.5931 94.52 63.0474 94.2332 61.4733C94.2017 61.2533 94.2963 61.1419 94.52 61.1419Z" fill="#292929"/>
<path d="M46.3302 141V129.967H50.7904C51.5834 129.967 52.2563 130.097 52.8093 130.358C53.3622 130.619 53.7795 131 54.0612 131.501C54.3534 131.991 54.4994 132.591 54.4994 133.3C54.4994 134.01 54.3534 134.615 54.0612 135.116C53.7795 135.616 53.3622 135.997 52.8093 136.258C52.2563 136.519 51.5834 136.649 50.7904 136.649H47.7857V141H46.3302ZM47.7857 135.476H50.6026C51.4164 135.476 52.0268 135.293 52.4337 134.928C52.851 134.552 53.0597 134.01 53.0597 133.3C53.0597 132.591 52.851 132.059 52.4337 131.704C52.0268 131.339 51.4164 131.156 50.6026 131.156H47.7857V135.476ZM55.9541 141V133.379H57.347V135.194H57.1905C57.3574 134.568 57.66 134.098 58.0982 133.785C58.5364 133.462 59.1154 133.274 59.8353 133.222L60.3204 133.175L60.43 134.411L59.5379 134.49C58.8493 134.563 58.3173 134.787 57.9417 135.163C57.5765 135.538 57.3939 136.055 57.3939 136.712V141H55.9541ZM65.0842 141.141C64.26 141.141 63.5505 140.984 62.9558 140.671C62.3716 140.348 61.9177 139.894 61.5943 139.31C61.2709 138.715 61.1092 138.016 61.1092 137.213C61.1092 136.42 61.2657 135.726 61.5786 135.131C61.9021 134.537 62.3403 134.072 62.8932 133.738C63.4566 133.405 64.0983 133.238 64.8182 133.238C65.5172 133.238 66.1119 133.389 66.6022 133.692C67.103 133.994 67.4838 134.427 67.7447 134.99C68.0159 135.543 68.1516 136.211 68.1516 136.994V137.51H62.2203V136.602H67.2126L66.9465 136.822C66.9465 136.008 66.7692 135.382 66.4144 134.944C66.0597 134.495 65.5381 134.271 64.8495 134.271C64.3487 134.271 63.9209 134.391 63.5662 134.631C63.2114 134.86 62.9402 135.189 62.7524 135.616C62.5646 136.034 62.4707 136.519 62.4707 137.072V137.166C62.4707 137.792 62.5698 138.319 62.768 138.746C62.9767 139.164 63.274 139.482 63.6601 139.701C64.0461 139.91 64.5208 140.014 65.0842 140.014C65.5328 140.014 65.9658 139.946 66.3831 139.811C66.8109 139.665 67.2126 139.44 67.5882 139.138L68.0264 140.124C67.6821 140.437 67.2387 140.687 66.6961 140.875C66.164 141.052 65.6267 141.141 65.0842 141.141ZM69.9541 141V133.379H71.3469V135.037H71.1748C71.3104 134.651 71.4982 134.328 71.7382 134.067C71.9782 133.796 72.2651 133.592 72.5989 133.457C72.9432 133.311 73.3188 133.238 73.7257 133.238C74.3726 133.238 74.8942 133.394 75.2907 133.707C75.6872 134.01 75.9532 134.474 76.0888 135.1H75.8697C76.0575 134.526 76.3914 134.072 76.8713 133.738C77.3617 133.405 77.9303 133.238 78.5772 133.238C79.151 133.238 79.6205 133.352 79.9856 133.582C80.3612 133.801 80.6429 134.135 80.8307 134.584C81.0185 135.022 81.1124 135.585 81.1124 136.274V141H79.6883V136.336C79.6883 135.669 79.5735 135.178 79.344 134.865C79.1145 134.552 78.7284 134.396 78.1859 134.396C77.7894 134.396 77.4451 134.49 77.153 134.677C76.8609 134.865 76.6366 135.131 76.4801 135.476C76.3236 135.82 76.2453 136.232 76.2453 136.712V141H74.8212V136.336C74.8212 135.669 74.7064 135.178 74.4769 134.865C74.2474 134.552 73.8613 134.396 73.3188 134.396C72.9224 134.396 72.5781 134.49 72.2859 134.677C71.9938 134.865 71.7695 135.131 71.613 135.476C71.4565 135.82 71.3782 136.232 71.3782 136.712V141H69.9541ZM83.2616 131.548V130.014H84.9674V131.548H83.2616ZM83.4024 141V133.379H84.8266V141H83.4024ZM90.6374 141.141C89.8132 141.141 89.1037 140.984 88.509 140.671C87.9248 140.348 87.4709 139.894 87.1475 139.31C86.8241 138.715 86.6624 138.016 86.6624 137.213C86.6624 136.42 86.8189 135.726 87.1319 135.131C87.4553 134.537 87.8935 134.072 88.4464 133.738C89.0098 133.405 89.6515 133.238 90.3714 133.238C91.0704 133.238 91.6651 133.389 92.1554 133.692C92.6562 133.994 93.037 134.427 93.2979 134.99C93.5691 135.543 93.7048 136.211 93.7048 136.994V137.51H87.7735V136.602H92.7658L92.4997 136.822C92.4997 136.008 92.3224 135.382 91.9676 134.944C91.6129 134.495 91.0913 134.271 90.4027 134.271C89.9019 134.271 89.4741 134.391 89.1194 134.631C88.7646 134.86 88.4934 135.189 88.3056 135.616C88.1178 136.034 88.0239 136.519 88.0239 137.072V137.166C88.0239 137.792 88.123 138.319 88.3212 138.746C88.5299 139.164 88.8272 139.482 89.2133 139.701C89.5993 139.91 90.074 140.014 90.6374 140.014C91.086 140.014 91.519 139.946 91.9363 139.811C92.3641 139.665 92.7658 139.44 93.1414 139.138L93.5796 140.124C93.2353 140.437 92.7919 140.687 92.2493 140.875C91.7172 141.052 91.1799 141.141 90.6374 141.141ZM95.476 141V133.379H96.8688V135.194H96.7123C96.8793 134.568 97.1818 134.098 97.62 133.785C98.0582 133.462 98.6373 133.274 99.3572 133.222L99.8423 133.175L99.9519 134.411L99.0598 134.49C98.3712 134.563 97.8391 134.787 97.4635 135.163C97.0984 135.538 96.9158 136.055 96.9158 136.712V141H95.476ZM105.445 141V129.967H109.905C110.698 129.967 111.371 130.097 111.924 130.358C112.477 130.619 112.894 131 113.176 131.501C113.468 131.991 113.614 132.591 113.614 133.3C113.614 134.01 113.468 134.615 113.176 135.116C112.894 135.616 112.477 135.997 111.924 136.258C111.371 136.519 110.698 136.649 109.905 136.649H106.9V141H105.445ZM106.9 135.476H109.717C110.531 135.476 111.141 135.293 111.548 134.928C111.966 134.552 112.174 134.01 112.174 133.3C112.174 132.591 111.966 132.059 111.548 131.704C111.141 131.339 110.531 131.156 109.717 131.156H106.9V135.476ZM115.069 141V133.379H116.462V135.194H116.305C116.472 134.568 116.775 134.098 117.213 133.785C117.651 133.462 118.23 133.274 118.95 133.222L119.435 133.175L119.545 134.411L118.653 134.49C117.964 134.563 117.432 134.787 117.056 135.163C116.691 135.538 116.509 136.055 116.509 136.712V141H115.069ZM123.917 141.141C123.166 141.141 122.514 140.979 121.961 140.656C121.408 140.332 120.98 139.873 120.678 139.279C120.375 138.684 120.224 137.985 120.224 137.181C120.224 136.378 120.375 135.684 120.678 135.1C120.98 134.505 121.408 134.046 121.961 133.723C122.514 133.399 123.166 133.238 123.917 133.238C124.668 133.238 125.32 133.399 125.873 133.723C126.426 134.046 126.854 134.505 127.157 135.1C127.459 135.684 127.611 136.378 127.611 137.181C127.611 137.985 127.459 138.684 127.157 139.279C126.854 139.873 126.426 140.332 125.873 140.656C125.32 140.979 124.668 141.141 123.917 141.141ZM123.917 140.014C124.606 140.014 125.154 139.774 125.56 139.294C125.967 138.804 126.171 138.1 126.171 137.181C126.171 136.263 125.967 135.564 125.56 135.084C125.154 134.604 124.606 134.364 123.917 134.364C123.239 134.364 122.691 134.604 122.274 135.084C121.867 135.564 121.664 136.263 121.664 137.181C121.664 138.1 121.867 138.804 122.274 139.294C122.691 139.774 123.239 140.014 123.917 140.014Z" fill="white"/>
</svg>
