<svg width="175" height="175" viewBox="0 0 175 175" fill="none" xmlns="http://www.w3.org/2000/svg">
<path d="M66.3735 141.323V130.29H67.5942L71.9918 138.538H71.5066L75.8886 130.29H77.0936V141.323H75.779V132.309H76.1233L72.1952 139.633H71.2875L67.3125 132.293H67.6881V141.323H66.3735ZM79.4473 131.871V130.337H81.1532V131.871H79.4473ZM79.5882 141.323V133.702H81.0123V141.323H79.5882ZM83.3019 141.323V133.702H84.6948V135.517H84.5383C84.7052 134.891 85.0078 134.422 85.446 134.109C85.8842 133.785 86.4632 133.597 87.1831 133.545L87.6682 133.498L87.7778 134.735L86.8857 134.813C86.1972 134.886 85.6651 135.11 85.2895 135.486C84.9243 135.861 84.7417 136.378 84.7417 137.035V141.323H83.3019ZM92.1503 141.464C91.3991 141.464 90.7471 141.302 90.1941 140.979C89.6411 140.656 89.2134 140.196 88.9108 139.602C88.6082 139.007 88.457 138.308 88.457 137.505C88.457 136.701 88.6082 136.008 88.9108 135.423C89.2134 134.829 89.6411 134.37 90.1941 134.046C90.7471 133.723 91.3991 133.561 92.1503 133.561C92.9015 133.561 93.5536 133.723 94.1065 134.046C94.6595 134.37 95.0873 134.829 95.3898 135.423C95.6924 136.008 95.8437 136.701 95.8437 137.505C95.8437 138.308 95.6924 139.007 95.3898 139.602C95.0873 140.196 94.6595 140.656 94.1065 140.979C93.5536 141.302 92.9015 141.464 92.1503 141.464ZM92.1503 140.337C92.8389 140.337 93.3867 140.097 93.7935 139.617C94.2004 139.127 94.4039 138.423 94.4039 137.505C94.4039 136.587 94.2004 135.888 93.7935 135.408C93.3867 134.928 92.8389 134.688 92.1503 134.688C91.4722 134.688 90.9244 134.928 90.5071 135.408C90.1002 135.888 89.8967 136.587 89.8967 137.505C89.8967 138.423 90.1002 139.127 90.5071 139.617C90.9244 140.097 91.4722 140.337 92.1503 140.337Z" fill="white"/>
<path d="M102.493 46.918H93.9604L101.071 59.4119L85.4273 46.918H76.8943L84.7165 62.1886L68.3612 46.918H59.8281L68.3612 66.3558L59.8281 105.227H68.3612L84.7165 63.5787L76.8943 105.227H85.4273L101.071 60.8021L93.9604 105.227H102.493L118.138 56.6349L102.493 46.918Z" fill="white"/>
</svg>
