<svg width="175" height="175" viewBox="0 0 175 175" fill="none" xmlns="http://www.w3.org/2000/svg">
<path d="M66.3424 141.323V130.29H67.4536L74.3238 139.398H73.9326V130.29H75.2941V141.323H74.1986L67.3284 132.199H67.6883V141.323H66.3424ZM80.994 141.464C80.2428 141.464 79.5907 141.302 79.0377 140.979C78.4848 140.656 78.057 140.196 77.7545 139.602C77.4519 139.007 77.3006 138.308 77.3006 137.505C77.3006 136.701 77.4519 136.008 77.7545 135.423C78.057 134.829 78.4848 134.37 79.0377 134.046C79.5907 133.723 80.2428 133.561 80.994 133.561C81.7452 133.561 82.3972 133.723 82.9502 134.046C83.5031 134.37 83.9309 134.829 84.2335 135.423C84.536 136.008 84.6873 136.701 84.6873 137.505C84.6873 138.308 84.536 139.007 84.2335 139.602C83.9309 140.196 83.5031 140.656 82.9502 140.979C82.3972 141.302 81.7452 141.464 80.994 141.464ZM80.994 140.337C81.6826 140.337 82.2303 140.097 82.6372 139.617C83.0441 139.127 83.2475 138.423 83.2475 137.505C83.2475 136.587 83.0441 135.888 82.6372 135.408C82.2303 134.928 81.6826 134.688 80.994 134.688C80.3158 134.688 79.7681 134.928 79.3507 135.408C78.9438 135.888 78.7404 136.587 78.7404 137.505C78.7404 138.423 78.9438 139.127 79.3507 139.617C79.7681 140.097 80.3158 140.337 80.994 140.337ZM89.5965 141.464C88.6679 141.464 87.9741 141.224 87.515 140.744C87.056 140.254 86.8264 139.555 86.8264 138.647V134.797H85.3397V133.702H86.8264V131.386H88.2506V133.702H90.645V134.797H88.2506V138.522C88.2506 139.096 88.3706 139.529 88.6105 139.821C88.8505 140.113 89.247 140.259 89.7999 140.259C89.9668 140.259 90.1286 140.243 90.2851 140.212C90.452 140.17 90.6085 140.129 90.7546 140.087L90.9893 141.151C90.8432 141.245 90.6346 141.318 90.3633 141.37C90.1025 141.433 89.8469 141.464 89.5965 141.464ZM91.9032 131.871V130.337H93.6091V131.871H91.9032ZM92.0441 141.323V133.702H93.4682V141.323H92.0441ZM98.9974 141.464C98.2462 141.464 97.5941 141.302 97.0411 140.979C96.4882 140.656 96.0604 140.196 95.7578 139.602C95.4553 139.007 95.304 138.308 95.304 137.505C95.304 136.701 95.4553 136.008 95.7578 135.423C96.0604 134.829 96.4882 134.37 97.0411 134.046C97.5941 133.723 98.2462 133.561 98.9974 133.561C99.7485 133.561 100.401 133.723 100.954 134.046C101.507 134.37 101.934 134.829 102.237 135.423C102.539 136.008 102.691 136.701 102.691 137.505C102.691 138.308 102.539 139.007 102.237 139.602C101.934 140.196 101.507 140.656 100.954 140.979C100.401 141.302 99.7485 141.464 98.9974 141.464ZM98.9974 140.337C99.6859 140.337 100.234 140.097 100.641 139.617C101.047 139.127 101.251 138.423 101.251 137.505C101.251 136.587 101.047 135.888 100.641 135.408C100.234 134.928 99.6859 134.688 98.9974 134.688C98.3192 134.688 97.7715 134.928 97.3541 135.408C96.9472 135.888 96.7438 136.587 96.7438 137.505C96.7438 138.423 96.9472 139.127 97.3541 139.617C97.7715 140.097 98.3192 140.337 98.9974 140.337ZM104.515 141.323V133.702H105.908V135.361H105.736C105.955 134.766 106.31 134.317 106.8 134.015C107.301 133.712 107.869 133.561 108.506 133.561C109.121 133.561 109.627 133.67 110.024 133.89C110.42 134.109 110.718 134.448 110.916 134.907C111.114 135.355 111.213 135.919 111.213 136.597V141.323H109.789V136.675C109.789 136.227 109.732 135.856 109.617 135.564C109.502 135.272 109.32 135.058 109.069 134.922C108.829 134.787 108.521 134.719 108.146 134.719C107.708 134.719 107.322 134.813 106.988 135.001C106.654 135.189 106.393 135.455 106.205 135.799C106.028 136.143 105.939 136.545 105.939 137.004V141.323H104.515Z" fill="white"/>
<g clip-path="url(#clip0_2701_16)">
<g clip-path="url(#clip1_2701_16)">
<g clip-path="url(#clip2_2701_16)">
<path fill-rule="evenodd" clip-rule="evenodd" d="M96.0482 48.7636L61.4099 51.3197C58.6151 51.5636 57.6436 53.3894 57.6436 55.5778V93.5481C57.6436 95.2526 58.2487 96.712 59.7093 98.6604L67.8511 109.247C69.1892 110.953 70.406 111.318 72.9595 111.197L113.183 108.762C116.585 108.52 117.559 106.937 117.559 104.259V61.5416C117.559 60.1579 117.012 59.7589 115.403 58.5786L104.071 50.5881C101.398 48.6436 100.301 48.3984 96.0482 48.7636ZM73.8672 60.84C70.5833 61.0617 69.8374 61.1113 67.9724 59.5945L63.2318 55.8242C62.7493 55.3352 62.9919 54.7261 64.206 54.6049L97.5049 52.1726C100.301 51.9274 101.756 52.9029 102.851 53.7546L108.562 57.8913C108.805 58.0152 109.413 58.7429 108.681 58.7429L74.295 60.8139L73.8685 60.8426L73.8672 60.84ZM70.0382 103.894V67.6307C70.0382 66.0462 70.5247 65.3158 71.9814 65.192L111.476 62.881C112.817 62.7597 113.422 63.6113 113.422 65.192V101.217C113.422 102.8 113.178 104.139 110.991 104.26L73.1969 106.451C71.0098 106.573 70.0395 105.844 70.0395 103.895L70.0382 103.894ZM107.347 69.5726C107.59 70.6681 107.347 71.7636 106.252 71.8888L104.43 72.25V99.0255C102.848 99.8771 101.391 100.364 100.176 100.364C98.23 100.364 97.7449 99.7546 96.2881 97.93L84.376 79.1894V97.321L88.145 98.1739C88.145 98.1739 88.145 100.365 85.1038 100.365L76.722 100.851C76.4768 100.364 76.722 99.1468 77.571 98.9055L79.7606 98.2978V74.3236L76.722 74.0771C76.4781 72.9816 77.0858 71.401 78.7877 71.2784L87.7812 70.672L100.176 89.6565V72.8617L97.0172 72.4978C96.772 71.1571 97.7449 70.1816 98.9604 70.063L107.347 69.5726Z" fill="white"/>
</g>
</g>
</g>
<defs>
<clipPath id="clip0_2701_16">
<rect width="62.5992" height="62.5992" fill="white" transform="translate(56.3394 48.6201)"/>
</clipPath>
<clipPath id="clip1_2701_16">
<rect width="62.5992" height="62.5992" fill="white" transform="translate(56.3394 48.6201)"/>
</clipPath>
<clipPath id="clip2_2701_16">
<rect width="62.5992" height="62.5992" fill="white" transform="translate(56.3394 48.6201)"/>
</clipPath>
</defs>
</svg>
