<svg width="175" height="175" viewBox="0 0 175 175" fill="none" xmlns="http://www.w3.org/2000/svg">
<path d="M54.3302 141.323V130.29H55.7857V141.323H54.3302ZM60.664 141.464C59.8502 141.464 59.2399 141.235 58.833 140.775C58.4365 140.306 58.2383 139.633 58.2383 138.757V130.29H59.6624V138.647C59.6624 139.002 59.7094 139.304 59.8033 139.555C59.9076 139.795 60.0537 139.972 60.2415 140.087C60.4397 140.202 60.6849 140.259 60.977 140.259C61.0918 140.259 61.2065 140.254 61.3213 140.243C61.4465 140.233 61.5613 140.212 61.6656 140.181L61.6343 141.339C61.4674 141.381 61.3004 141.412 61.1335 141.433C60.977 141.454 60.8205 141.464 60.664 141.464ZM65.3712 141.464C64.5574 141.464 63.947 141.235 63.5401 140.775C63.1437 140.306 62.9455 139.633 62.9455 138.757V130.29H64.3696V138.647C64.3696 139.002 64.4165 139.304 64.5104 139.555C64.6148 139.795 64.7608 139.972 64.9486 140.087C65.1469 140.202 65.392 140.259 65.6842 140.259C65.7989 140.259 65.9137 140.254 66.0285 140.243C66.1537 140.233 66.2684 140.212 66.3728 140.181L66.3415 141.339C66.1745 141.381 66.0076 141.412 65.8407 141.433C65.6842 141.454 65.5277 141.464 65.3712 141.464ZM70.3757 141.464C69.7601 141.464 69.2437 141.349 68.8264 141.12C68.4195 140.89 68.1169 140.551 67.9187 140.103C67.7204 139.654 67.6213 139.091 67.6213 138.412V133.702H69.0455V138.412C69.0455 138.84 69.1028 139.195 69.2176 139.477C69.3324 139.758 69.5097 139.967 69.7497 140.103C70.0001 140.238 70.3131 140.306 70.6887 140.306C71.106 140.306 71.4712 140.212 71.7842 140.024C72.0972 139.837 72.3423 139.57 72.5197 139.226C72.6971 138.882 72.7858 138.48 72.7858 138.021V133.702H74.2099V141.323H72.8171V139.602H73.0205C72.8118 140.207 72.4728 140.671 72.0033 140.995C71.5442 141.308 71.0017 141.464 70.3757 141.464ZM79.1307 141.464C78.7342 141.464 78.3429 141.428 77.9569 141.355C77.5813 141.282 77.2318 141.177 76.9084 141.042C76.5954 140.895 76.3189 140.723 76.0789 140.525L76.5015 139.539C76.7519 139.727 77.0231 139.889 77.3153 140.024C77.6074 140.15 77.91 140.243 78.223 140.306C78.536 140.369 78.849 140.4 79.162 140.4C79.7358 140.4 80.1688 140.296 80.4609 140.087C80.753 139.878 80.8991 139.602 80.8991 139.257C80.8991 138.965 80.8 138.741 80.6017 138.585C80.4139 138.418 80.1166 138.292 79.7097 138.209L78.2543 137.912C77.6074 137.766 77.117 137.526 76.7832 137.192C76.4598 136.847 76.298 136.409 76.298 135.877C76.298 135.408 76.4232 135.001 76.6736 134.656C76.9345 134.302 77.2944 134.03 77.7535 133.843C78.2125 133.655 78.7394 133.561 79.3341 133.561C79.6888 133.561 80.0331 133.597 80.367 133.67C80.7009 133.744 81.0138 133.848 81.306 133.983C81.5981 134.119 81.8433 134.296 82.0415 134.516L81.6033 135.486C81.4051 135.298 81.1808 135.142 80.9304 135.016C80.68 134.891 80.4192 134.797 80.1479 134.735C79.8766 134.662 79.6054 134.625 79.3341 134.625C78.7707 134.625 78.3429 134.735 78.0508 134.954C77.7691 135.173 77.6283 135.46 77.6283 135.815C77.6283 136.086 77.7117 136.31 77.8787 136.487C78.056 136.665 78.3325 136.795 78.7081 136.879L80.1635 137.176C80.8417 137.322 81.3529 137.557 81.6972 137.88C82.0415 138.193 82.2137 138.621 82.2137 139.164C82.2137 139.643 82.0833 140.056 81.8224 140.4C81.572 140.744 81.2121 141.01 80.7426 141.198C80.2835 141.375 79.7462 141.464 79.1307 141.464ZM87.1514 141.464C86.2229 141.464 85.5291 141.224 85.07 140.744C84.6109 140.254 84.3814 139.555 84.3814 138.647V134.797H82.8947V133.702H84.3814V131.386H85.8055V133.702H88.2V134.797H85.8055V138.522C85.8055 139.096 85.9255 139.529 86.1655 139.821C86.4055 140.113 86.8019 140.259 87.3549 140.259C87.5218 140.259 87.6835 140.243 87.84 140.212C88.0069 140.17 88.1634 140.129 88.3095 140.087L88.5443 141.151C88.3982 141.245 88.1895 141.318 87.9183 141.37C87.6574 141.433 87.4018 141.464 87.1514 141.464ZM89.599 141.323V133.702H90.9919V135.517H90.8354C91.0023 134.891 91.3049 134.422 91.7431 134.109C92.1813 133.785 92.7603 133.597 93.4802 133.545L93.9653 133.498L94.0749 134.735L93.1828 134.813C92.4942 134.886 91.9622 135.11 91.5866 135.486C91.2214 135.861 91.0388 136.378 91.0388 137.035V141.323H89.599ZM97.6642 141.464C97.1425 141.464 96.6678 141.36 96.2401 141.151C95.8227 140.942 95.4941 140.661 95.2541 140.306C95.0246 139.951 94.9098 139.555 94.9098 139.117C94.9098 138.553 95.0507 138.11 95.3324 137.786C95.6141 137.463 96.0888 137.233 96.7565 137.098C97.4242 136.952 98.3215 136.879 99.4483 136.879H100.184V137.786H99.4796C98.8744 137.786 98.3684 137.807 97.9615 137.849C97.5546 137.891 97.2312 137.959 96.9912 138.052C96.7513 138.146 96.5791 138.277 96.4748 138.444C96.3705 138.6 96.3183 138.798 96.3183 139.038C96.3183 139.445 96.4591 139.779 96.7408 140.04C97.033 140.301 97.4294 140.431 97.9302 140.431C98.3267 140.431 98.6762 140.337 98.9788 140.15C99.2813 139.951 99.5213 139.69 99.6987 139.367C99.876 139.033 99.9647 138.652 99.9647 138.225V136.425C99.9647 135.809 99.8395 135.366 99.5891 135.095C99.3387 134.813 98.9162 134.672 98.3215 134.672C97.8833 134.672 97.4451 134.74 97.0069 134.876C96.5791 135.011 96.1357 135.22 95.6767 135.502L95.2228 134.484C95.4941 134.296 95.8019 134.135 96.1462 133.999C96.5009 133.853 96.866 133.744 97.2416 133.67C97.6277 133.597 97.998 133.561 98.3528 133.561C99.0309 133.561 99.5891 133.67 100.027 133.89C100.465 134.098 100.794 134.427 101.013 134.876C101.232 135.314 101.342 135.877 101.342 136.566V141.323H99.996V139.586H100.137C100.053 139.972 99.8969 140.306 99.6674 140.588C99.4378 140.869 99.1509 141.088 98.8066 141.245C98.4728 141.391 98.0919 141.464 97.6642 141.464ZM106.744 141.464C105.816 141.464 105.122 141.224 104.663 140.744C104.204 140.254 103.974 139.555 103.974 138.647V134.797H102.488V133.702H103.974V131.386H105.398V133.702H107.793V134.797H105.398V138.522C105.398 139.096 105.518 139.529 105.758 139.821C105.998 140.113 106.395 140.259 106.948 140.259C107.115 140.259 107.276 140.243 107.433 140.212C107.6 140.17 107.756 140.129 107.902 140.087L108.137 141.151C107.991 141.245 107.782 141.318 107.511 141.37C107.25 141.433 106.995 141.464 106.744 141.464ZM112.355 141.464C111.604 141.464 110.952 141.302 110.399 140.979C109.846 140.656 109.418 140.196 109.115 139.602C108.813 139.007 108.662 138.308 108.662 137.505C108.662 136.701 108.813 136.008 109.115 135.423C109.418 134.829 109.846 134.37 110.399 134.046C110.952 133.723 111.604 133.561 112.355 133.561C113.106 133.561 113.758 133.723 114.311 134.046C114.864 134.37 115.292 134.829 115.594 135.423C115.897 136.008 116.048 136.701 116.048 137.505C116.048 138.308 115.897 139.007 115.594 139.602C115.292 140.196 114.864 140.656 114.311 140.979C113.758 141.302 113.106 141.464 112.355 141.464ZM112.355 140.337C113.044 140.337 113.591 140.097 113.998 139.617C114.405 139.127 114.609 138.423 114.609 137.505C114.609 136.587 114.405 135.888 113.998 135.408C113.591 134.928 113.044 134.688 112.355 134.688C111.677 134.688 111.129 134.928 110.712 135.408C110.305 135.888 110.101 136.587 110.101 137.505C110.101 138.423 110.305 139.127 110.712 139.617C111.129 140.097 111.677 140.337 112.355 140.337ZM117.873 141.323V133.702H119.265V135.517H119.109C119.276 134.891 119.578 134.422 120.017 134.109C120.455 133.785 121.034 133.597 121.754 133.545L122.239 133.498L122.348 134.735L121.456 134.813C120.768 134.886 120.236 135.11 119.86 135.486C119.495 135.861 119.312 136.378 119.312 137.035V141.323H117.873Z" fill="white"/>
<g clip-path="url(#clip0_2701_34)">
<path d="M109.311 35.8252H66.6892C65.1536 35.8232 63.6327 36.1241 62.2136 36.7108C60.7944 37.2976 59.505 38.1585 58.4192 39.2444C57.3333 40.3302 56.4724 41.6196 55.8857 43.0387C55.2989 44.4579 54.998 45.9788 55 47.5144V88.486C54.998 90.0216 55.2989 91.5425 55.8857 92.9617C56.4724 94.3808 57.3333 95.6702 58.4192 96.7561C59.505 97.8419 60.7944 98.7028 62.2136 99.2896C63.6327 99.8763 65.1536 100.177 66.6892 100.175H109.311C110.846 100.177 112.367 99.8763 113.786 99.2896C115.206 98.7028 116.495 97.8419 117.581 96.7561C118.667 95.6702 119.528 94.3808 120.114 92.9617C120.701 91.5425 121.002 90.0216 121 88.486V47.5144C121.002 45.9788 120.701 44.4579 120.114 43.0387C119.528 41.6196 118.667 40.3302 117.581 39.2444C116.495 38.1585 115.206 37.2976 113.786 36.7108C112.367 36.1241 110.846 35.8232 109.311 35.8252ZM95.3425 81.2002H89.5933C89.4964 81.2076 89.3999 81.1814 89.3201 81.126C89.2403 81.0705 89.182 80.9893 89.155 80.896L86.9017 74.3269H76.6563L74.5938 80.7877C74.5712 80.9047 74.5059 81.0091 74.4106 81.0806C74.3153 81.1521 74.1968 81.1855 74.0781 81.1744H68.9219C68.6228 81.1744 68.5403 81.0094 68.6228 80.6588L77.44 55.1869C77.5225 54.9085 77.605 54.6094 77.7133 54.2794C77.826 53.6898 77.8813 53.0905 77.8783 52.4902C77.8705 52.4209 77.8889 52.3513 77.93 52.295C77.971 52.2386 78.0317 52.1997 78.1 52.186H85.2208C85.4425 52.186 85.5508 52.2685 85.5817 52.4077L95.6158 80.731C95.6983 81.0352 95.6158 81.1744 95.3425 81.1744V81.2002ZM104.83 80.8908C104.83 81.195 104.722 81.3291 104.474 81.3291H99.0808C99.0232 81.3335 98.9654 81.3249 98.9116 81.3041C98.8578 81.2832 98.8094 81.2506 98.7698 81.2086C98.7302 81.1665 98.7006 81.1162 98.683 81.0612C98.6655 81.0062 98.6604 80.948 98.6683 80.8908V59.6935C98.6683 59.4202 98.7817 59.3119 99.0292 59.3119H104.5C104.748 59.3119 104.856 59.446 104.856 59.6935L104.83 80.8908ZM104.253 56.0377C103.928 56.3671 103.537 56.6235 103.106 56.7898C102.675 56.956 102.213 57.0284 101.752 57.0019C101.3 57.0119 100.851 56.9317 100.43 56.7662C100.01 56.6006 99.6263 56.353 99.3025 56.0377C98.6696 55.35 98.3341 54.44 98.3692 53.506C98.3499 53.0529 98.4268 52.6009 98.5948 52.1796C98.7627 51.7584 99.018 51.3774 99.3438 51.0619C100.003 50.4359 100.879 50.0902 101.788 50.0977C102.25 50.0738 102.712 50.1473 103.143 50.3134C103.575 50.4795 103.967 50.7346 104.294 51.0619C104.901 51.7283 105.227 52.6045 105.201 53.506C105.22 53.9699 105.145 54.4328 104.982 54.8676C104.819 55.3023 104.571 55.7002 104.253 56.0377ZM85.2517 68.7427H78.265C78.6775 67.5877 79.09 66.2935 79.4767 64.891C79.8634 63.4885 80.3275 62.1427 80.74 60.8227C81.1156 59.6581 81.4272 58.4739 81.6733 57.2752H81.73C81.9208 57.9352 82.1167 58.6519 82.3333 59.4202C82.5499 60.1885 82.8025 61.0135 83.0758 61.8694C83.3491 62.7254 83.5914 63.5452 83.875 64.396C84.1586 65.2468 84.3906 66.0202 84.6175 66.7627C84.8444 67.5052 85.0867 68.1652 85.2517 68.7427Z" fill="white"/>
</g>
<defs>
<clipPath id="clip0_2701_34">
<rect width="66" height="66" fill="white" transform="translate(55 35)"/>
</clipPath>
</defs>
</svg>
